<?xml version="1.0" encoding="UTF-8" standalone="no"?>
<!DOCTYPE svg PUBLIC "-//W3C//DTD SVG 1.1//EN"
 "http://www.w3.org/Graphics/SVG/1.1/DTD/svg11.dtd">
<!-- Generated by graphviz version 2.44.0 (20200408.0750)
 -->
<!-- Title: dependency&#45;cruiser output Pages: 1 -->
<svg width="401pt" height="472pt"
 viewBox="0.00 0.00 401.50 472.00" xmlns="http://www.w3.org/2000/svg" xmlns:xlink="http://www.w3.org/1999/xlink">
<g id="graph0" class="graph" transform="scale(1 1) rotate(0) translate(4 468)">
<title>dependency&#45;cruiser output</title>
<polygon fill="white" stroke="transparent" points="-4,4 -4,-468 397.5,-468 397.5,4 -4,4"/>
<g id="clust1" class="cluster">
<title>cluster_</title>
<path fill="#ffffff" stroke="black" stroke-width="2" d="M118.99,-8C118.99,-8 183,-8 183,-8 189,-8 195,-14 195,-20 195,-20 195,-65 195,-65 195,-71 189,-77 183,-77 183,-77 118.99,-77 118.99,-77 112.99,-77 106.99,-71 106.99,-65 106.99,-65 106.99,-20 106.99,-20 106.99,-14 112.99,-8 118.99,-8"/>
</g>
<g id="clust2" class="cluster">
<title>cluster_/lib</title>
<path fill="#ffffff" stroke="black" stroke-width="2" d="M126.99,-16C126.99,-16 175,-16 175,-16 181,-16 187,-22 187,-28 187,-28 187,-57 187,-57 187,-63 181,-69 175,-69 175,-69 126.99,-69 126.99,-69 120.99,-69 114.99,-63 114.99,-57 114.99,-57 114.99,-28 114.99,-28 114.99,-22 120.99,-16 126.99,-16"/>
<text text-anchor="middle" x="151" y="-56.9" font-family="Helvetica,sans-Serif" font-weight="bold" font-size="9.00">lib</text>
</g>
<g id="clust3" class="cluster">
<title>cluster_client</title>
<path fill="#ffffff" stroke="black" stroke-width="2" d="M20,-85C20,-85 373.5,-85 373.5,-85 379.5,-85 385.5,-91 385.5,-97 385.5,-97 385.5,-444 385.5,-444 385.5,-450 379.5,-456 373.5,-456 373.5,-456 20,-456 20,-456 14,-456 8,-450 8,-444 8,-444 8,-97 8,-97 8,-91 14,-85 20,-85"/>
<text text-anchor="middle" x="196.75" y="-443.9" font-family="Helvetica,sans-Serif" font-weight="bold" font-size="9.00">client</text>
</g>
<g id="clust4" class="cluster">
<title>cluster_client/src</title>
<path fill="#ffffff" stroke="black" stroke-width="2" d="M28,-93C28,-93 365.5,-93 365.5,-93 371.5,-93 377.5,-99 377.5,-105 377.5,-105 377.5,-417 377.5,-417 377.5,-423 371.5,-429 365.5,-429 365.5,-429 28,-429 28,-429 22,-429 16,-423 16,-417 16,-417 16,-105 16,-105 16,-99 22,-93 28,-93"/>
<text text-anchor="middle" x="196.75" y="-416.9" font-family="Helvetica,sans-Serif" font-weight="bold" font-size="9.00">src</text>
</g>
<g id="clust5" class="cluster">
<title>cluster_client/src/data&#45;access</title>
<path fill="#ffffff" stroke="black" stroke-width="2" d="M36,-101C36,-101 357.5,-101 357.5,-101 363.5,-101 369.5,-107 369.5,-113 369.5,-113 369.5,-390 369.5,-390 369.5,-396 363.5,-402 357.5,-402 357.5,-402 36,-402 36,-402 30,-402 24,-396 24,-390 24,-390 24,-113 24,-113 24,-107 30,-101 36,-101"/>
<text text-anchor="middle" x="196.75" y="-389.9" font-family="Helvetica,sans-Serif" font-weight="bold" font-size="9.00">data&#45;access</text>
</g>
<g id="clust6" class="cluster">
<title>cluster_client/src/data&#45;access/local&#45;storage</title>
<path fill="#ffffff" stroke="black" stroke-width="2" d="M128,-199C128,-199 349.5,-199 349.5,-199 355.5,-199 361.5,-205 361.5,-211 361.5,-211 361.5,-346 361.5,-346 361.5,-352 355.5,-358 349.5,-358 349.5,-358 128,-358 128,-358 122,-358 116,-352 116,-346 116,-346 116,-211 116,-211 116,-205 122,-199 128,-199"/>
<text text-anchor="middle" x="238.75" y="-345.9" font-family="Helvetica,sans-Serif" font-weight="bold" font-size="9.00">local&#45;storage</text>
</g>
<g id="clust7" class="cluster">
<title>cluster_client/src/data&#45;access/utils</title>
<path fill="#ffffff" stroke="black" stroke-width="2" d="M119.25,-115C119.25,-115 279.5,-115 279.5,-115 285.5,-115 291.5,-121 291.5,-127 291.5,-127 291.5,-156 291.5,-156 291.5,-162 285.5,-168 279.5,-168 279.5,-168 119.25,-168 119.25,-168 113.25,-168 107.25,-162 107.25,-156 107.25,-156 107.25,-127 107.25,-127 107.25,-121 113.25,-115 119.25,-115"/>
<text text-anchor="middle" x="199.37" y="-155.9" font-family="Helvetica,sans-Serif" font-weight="bold" font-size="9.00">utils</text>
</g>
<!-- /lib/validate.js -->
<g id="node1" class="node">
<title>/lib/validate.js</title>
<polygon fill="#ffffcc" stroke="red" points="179,-42.3 177.45,-44.37 166.6,-44.37 165.05,-42.3 122.99,-42.3 122.99,-23.7 179,-23.7 179,-42.3"/>
<text text-anchor="middle" x="151" y="-30.3" font-family="Helvetica,sans-Serif" font-size="9.00" fill="red">validate.js</text>
</g>
<!-- client/src/data&#45;access/all&#45;keys.js -->
<g id="node2" class="node">
<title>client/src/data&#45;access/all&#45;keys.js</title>
<g id="a_node2"><a xlink:href="client/src/data-access/all-keys.js" xlink:title="all&#45;keys.js">
<path fill="#ffffcc" stroke="black" d="M87.29,-282.3C87.29,-282.3 43.7,-282.3 43.7,-282.3 40.6,-282.3 37.5,-279.2 37.5,-276.1 37.5,-276.1 37.5,-269.9 37.5,-269.9 37.5,-266.8 40.6,-263.7 43.7,-263.7 43.7,-263.7 87.29,-263.7 87.29,-263.7 90.39,-263.7 93.49,-266.8 93.49,-269.9 93.49,-269.9 93.49,-276.1 93.49,-276.1 93.49,-279.2 90.39,-282.3 87.29,-282.3"/>
<text text-anchor="middle" x="65.5" y="-270.3" font-family="Helvetica,sans-Serif" font-size="9.00">all&#45;keys.js</text>
</a>
</g>
</g>
<!-- client/src/data&#45;access/local&#45;storage/state.js -->
<g id="node3" class="node">
<title>client/src/data&#45;access/local&#45;storage/state.js</title>
<g id="a_node3"><a xlink:href="client/src/data-access/local-storage/state.js" xlink:title="state.js">
<path fill="#ffffcc" stroke="black" d="M171.8,-278.3C171.8,-278.3 130.2,-278.3 130.2,-278.3 127.1,-278.3 124,-275.2 124,-272.1 124,-272.1 124,-265.9 124,-265.9 124,-262.8 127.1,-259.7 130.2,-259.7 130.2,-259.7 171.8,-259.7 171.8,-259.7 174.9,-259.7 178,-262.8 178,-265.9 178,-265.9 178,-272.1 178,-272.1 178,-275.2 174.9,-278.3 171.8,-278.3"/>
<text text-anchor="middle" x="151" y="-266.3" font-family="Helvetica,sans-Serif" font-size="9.00">state.js</text>
</a>
</g>
</g>
<!-- client/src/data&#45;access/all&#45;keys.js&#45;&gt;client/src/data&#45;access/local&#45;storage/state.js -->
<g id="edge1" class="edge">
<title>client/src/data&#45;access/all&#45;keys.js&#45;&gt;client/src/data&#45;access/local&#45;storage/state.js</title>
<path fill="none" stroke="#000000" stroke-width="2" stroke-opacity="0.200000" d="M93.38,-271.71C101.13,-271.34 109.66,-270.93 117.7,-270.55"/>
<polygon fill="#000000" fill-opacity="0.200000" stroke="#000000" stroke-width="2" stroke-opacity="0.200000" points="117.84,-272.64 123.74,-270.26 117.64,-268.45 117.84,-272.64"/>
</g>
<!-- client/src/data&#45;access/local&#45;storage/get&#45;item.js -->
<g id="node5" class="node">
<title>client/src/data&#45;access/local&#45;storage/get&#45;item.js</title>
<g id="a_node5"><a xlink:href="client/src/data-access/local-storage/get-item.js" xlink:title="get&#45;item.js">
<path fill="#ffffcc" stroke="black" d="M266.05,-300.3C266.05,-300.3 220.45,-300.3 220.45,-300.3 217.35,-300.3 214.25,-297.2 214.25,-294.1 214.25,-294.1 214.25,-287.9 214.25,-287.9 214.25,-284.8 217.35,-281.7 220.45,-281.7 220.45,-281.7 266.05,-281.7 266.05,-281.7 269.15,-281.7 272.25,-284.8 272.25,-287.9 272.25,-287.9 272.25,-294.1 272.25,-294.1 272.25,-297.2 269.15,-300.3 266.05,-300.3"/>
<text text-anchor="middle" x="243.25" y="-288.3" font-family="Helvetica,sans-Serif" font-size="9.00">get&#45;item.js</text>
</a>
</g>
</g>
<!-- client/src/data&#45;access/local&#45;storage/state.js&#45;&gt;client/src/data&#45;access/local&#45;storage/get&#45;item.js -->
<g id="edge20" class="edge">
<title>client/src/data&#45;access/local&#45;storage/state.js&#45;&gt;client/src/data&#45;access/local&#45;storage/get&#45;item.js</title>
<path fill="none" stroke="#000000" stroke-width="2" stroke-opacity="0.200000" d="M178.1,-275.36C187.5,-277.65 198.25,-280.27 208.22,-282.71"/>
<polygon fill="#000000" fill-opacity="0.200000" stroke="#000000" stroke-width="2" stroke-opacity="0.200000" points="207.99,-284.81 214.31,-284.19 208.98,-280.73 207.99,-284.81"/>
</g>
<!-- client/src/data&#45;access/local&#45;storage/store.js -->
<g id="node15" class="node">
<title>client/src/data&#45;access/local&#45;storage/store.js</title>
<g id="a_node15"><a xlink:href="client/src/data-access/local-storage/store.js" xlink:title="store.js">
<path fill="#ffffcc" stroke="black" d="M347.3,-278.3C347.3,-278.3 305.7,-278.3 305.7,-278.3 302.6,-278.3 299.5,-275.2 299.5,-272.1 299.5,-272.1 299.5,-265.9 299.5,-265.9 299.5,-262.8 302.6,-259.7 305.7,-259.7 305.7,-259.7 347.3,-259.7 347.3,-259.7 350.4,-259.7 353.5,-262.8 353.5,-265.9 353.5,-265.9 353.5,-272.1 353.5,-272.1 353.5,-275.2 350.4,-278.3 347.3,-278.3"/>
<text text-anchor="middle" x="326.5" y="-266.3" font-family="Helvetica,sans-Serif" font-size="9.00">store.js</text>
</a>
</g>
</g>
<!-- client/src/data&#45;access/local&#45;storage/state.js&#45;&gt;client/src/data&#45;access/local&#45;storage/store.js -->
<g id="edge21" class="edge">
<title>client/src/data&#45;access/local&#45;storage/state.js&#45;&gt;client/src/data&#45;access/local&#45;storage/store.js</title>
<path fill="none" stroke="#000000" stroke-width="2" stroke-opacity="0.200000" d="M178.35,-269C209.1,-269 259.95,-269 293.09,-269"/>
<polygon fill="#000000" fill-opacity="0.200000" stroke="#000000" stroke-width="2" stroke-opacity="0.200000" points="293.47,-271.1 299.47,-269 293.47,-266.9 293.47,-271.1"/>
</g>
<!-- client/src/data&#45;access/find&#45;all.js -->
<g id="node4" class="node">
<title>client/src/data&#45;access/find&#45;all.js</title>
<g id="a_node4"><a xlink:href="client/src/data-access/find-all.js" xlink:title="find&#45;all.js">
<path fill="#ffffcc" stroke="black" d="M86.3,-313.3C86.3,-313.3 44.7,-313.3 44.7,-313.3 41.6,-313.3 38.5,-310.2 38.5,-307.1 38.5,-307.1 38.5,-300.9 38.5,-300.9 38.5,-297.8 41.6,-294.7 44.7,-294.7 44.7,-294.7 86.3,-294.7 86.3,-294.7 89.4,-294.7 92.5,-297.8 92.5,-300.9 92.5,-300.9 92.5,-307.1 92.5,-307.1 92.5,-310.2 89.4,-313.3 86.3,-313.3"/>
<text text-anchor="middle" x="65.5" y="-301.3" font-family="Helvetica,sans-Serif" font-size="9.00">find&#45;all.js</text>
</a>
</g>
</g>
<!-- client/src/data&#45;access/find&#45;all.js&#45;&gt;client/src/data&#45;access/local&#45;storage/state.js -->
<g id="edge3" class="edge">
<title>client/src/data&#45;access/find&#45;all.js&#45;&gt;client/src/data&#45;access/local&#45;storage/state.js</title>
<path fill="none" stroke="#000000" stroke-width="2" stroke-opacity="0.200000" d="M87.09,-294.58C91.11,-292.54 95.24,-290.3 98.99,-288 102.78,-285.68 103.03,-284.01 106.99,-282 110.46,-280.24 114.21,-278.68 118,-277.3"/>
<polygon fill="#000000" fill-opacity="0.200000" stroke="#000000" stroke-width="2" stroke-opacity="0.200000" points="118.95,-279.19 123.96,-275.27 117.6,-275.21 118.95,-279.19"/>
</g>
<!-- client/src/data&#45;access/find&#45;all.js&#45;&gt;client/src/data&#45;access/local&#45;storage/get&#45;item.js -->
<g id="edge2" class="edge">
<title>client/src/data&#45;access/find&#45;all.js&#45;&gt;client/src/data&#45;access/local&#45;storage/get&#45;item.js</title>
<path fill="none" stroke="#000000" stroke-width="2" stroke-opacity="0.200000" d="M92.81,-302.05C123.55,-299.78 174.49,-296.01 208.21,-293.52"/>
<polygon fill="#000000" fill-opacity="0.200000" stroke="#000000" stroke-width="2" stroke-opacity="0.200000" points="208.47,-295.6 214.3,-293.07 208.16,-291.42 208.47,-295.6"/>
</g>
<!-- client/src/data&#45;access/local&#45;storage/get&#45;item.js&#45;&gt;client/src/data&#45;access/local&#45;storage/store.js -->
<g id="edge17" class="edge">
<title>client/src/data&#45;access/local&#45;storage/get&#45;item.js&#45;&gt;client/src/data&#45;access/local&#45;storage/store.js</title>
<path fill="none" stroke="#000000" stroke-width="2" stroke-opacity="0.200000" d="M272.21,-283.43C279.1,-281.56 286.52,-279.55 293.58,-277.64"/>
<polygon fill="#000000" fill-opacity="0.200000" stroke="#000000" stroke-width="2" stroke-opacity="0.200000" points="294.16,-279.66 299.4,-276.07 293.06,-275.61 294.16,-279.66"/>
</g>
<!-- client/src/data&#45;access/find.js -->
<g id="node6" class="node">
<title>client/src/data&#45;access/find.js</title>
<g id="a_node6"><a xlink:href="client/src/data-access/find.js" xlink:title="find.js">
<path fill="#ffffcc" stroke="black" d="M86.3,-344.3C86.3,-344.3 44.7,-344.3 44.7,-344.3 41.6,-344.3 38.5,-341.2 38.5,-338.1 38.5,-338.1 38.5,-331.9 38.5,-331.9 38.5,-328.8 41.6,-325.7 44.7,-325.7 44.7,-325.7 86.3,-325.7 86.3,-325.7 89.4,-325.7 92.5,-328.8 92.5,-331.9 92.5,-331.9 92.5,-338.1 92.5,-338.1 92.5,-341.2 89.4,-344.3 86.3,-344.3"/>
<text text-anchor="middle" x="65.5" y="-332.3" font-family="Helvetica,sans-Serif" font-size="9.00">find.js</text>
</a>
</g>
</g>
<!-- client/src/data&#45;access/find.js&#45;&gt;client/src/data&#45;access/local&#45;storage/state.js -->
<g id="edge5" class="edge">
<title>client/src/data&#45;access/find.js&#45;&gt;client/src/data&#45;access/local&#45;storage/state.js</title>
<path fill="none" stroke="#000000" stroke-width="2" stroke-opacity="0.200000" d="M91.68,-325.62C94.44,-323.77 96.98,-321.58 98.99,-319 109.35,-305.74 95.59,-294.37 106.99,-282 110.05,-278.69 113.91,-276.21 118.07,-274.36"/>
<polygon fill="#000000" fill-opacity="0.200000" stroke="#000000" stroke-width="2" stroke-opacity="0.200000" points="118.97,-276.26 123.86,-272.2 117.5,-272.33 118.97,-276.26"/>
</g>
<!-- client/src/data&#45;access/find.js&#45;&gt;client/src/data&#45;access/local&#45;storage/get&#45;item.js -->
<g id="edge4" class="edge">
<title>client/src/data&#45;access/find.js&#45;&gt;client/src/data&#45;access/local&#45;storage/get&#45;item.js</title>
<path fill="none" stroke="#000000" stroke-width="2" stroke-opacity="0.200000" d="M92.61,-327.8C97.39,-326.51 102.34,-325.2 106.99,-324 141.48,-315.11 181.08,-305.52 208.48,-298.98"/>
<polygon fill="#000000" fill-opacity="0.200000" stroke="#000000" stroke-width="2" stroke-opacity="0.200000" points="209.13,-300.99 214.48,-297.55 208.15,-296.9 209.13,-300.99"/>
</g>
<!-- client/src/data&#45;access/has&#45;key.js -->
<g id="node7" class="node">
<title>client/src/data&#45;access/has&#45;key.js</title>
<g id="a_node7"><a xlink:href="client/src/data-access/has-key.js" xlink:title="has&#45;key.js">
<path fill="#ffffcc" stroke="black" d="M87.3,-251.3C87.3,-251.3 43.69,-251.3 43.69,-251.3 40.59,-251.3 37.49,-248.2 37.49,-245.1 37.49,-245.1 37.49,-238.9 37.49,-238.9 37.49,-235.8 40.59,-232.7 43.69,-232.7 43.69,-232.7 87.3,-232.7 87.3,-232.7 90.4,-232.7 93.5,-235.8 93.5,-238.9 93.5,-238.9 93.5,-245.1 93.5,-245.1 93.5,-248.2 90.4,-251.3 87.3,-251.3"/>
<text text-anchor="middle" x="65.5" y="-239.3" font-family="Helvetica,sans-Serif" font-size="9.00">has&#45;key.js</text>
</a>
</g>
</g>
<!-- client/src/data&#45;access/has&#45;key.js&#45;&gt;client/src/data&#45;access/local&#45;storage/state.js -->
<g id="edge6" class="edge">
<title>client/src/data&#45;access/has&#45;key.js&#45;&gt;client/src/data&#45;access/local&#45;storage/state.js</title>
<path fill="none" stroke="#000000" stroke-width="2" stroke-opacity="0.200000" d="M93.02,-251.34C97.67,-252.92 102.46,-254.53 106.99,-256 110.42,-257.11 114,-258.24 117.58,-259.35"/>
<polygon fill="#000000" fill-opacity="0.200000" stroke="#000000" stroke-width="2" stroke-opacity="0.200000" points="117.21,-261.43 123.56,-261.19 118.45,-257.42 117.21,-261.43"/>
</g>
<!-- client/src/data&#45;access/insert.js -->
<g id="node8" class="node">
<title>client/src/data&#45;access/insert.js</title>
<g id="a_node8"><a xlink:href="client/src/data-access/insert.js" xlink:title="insert.js">
<path fill="#ffffcc" stroke="black" d="M86.3,-189.3C86.3,-189.3 44.7,-189.3 44.7,-189.3 41.6,-189.3 38.5,-186.2 38.5,-183.1 38.5,-183.1 38.5,-176.9 38.5,-176.9 38.5,-173.8 41.6,-170.7 44.7,-170.7 44.7,-170.7 86.3,-170.7 86.3,-170.7 89.4,-170.7 92.5,-173.8 92.5,-176.9 92.5,-176.9 92.5,-183.1 92.5,-183.1 92.5,-186.2 89.4,-189.3 86.3,-189.3"/>
<text text-anchor="middle" x="65.5" y="-177.3" font-family="Helvetica,sans-Serif" font-size="9.00">insert.js</text>
</a>
</g>
</g>
<!-- client/src/data&#45;access/insert.js&#45;&gt;client/src/data&#45;access/local&#45;storage/state.js -->
<g id="edge8" class="edge">
<title>client/src/data&#45;access/insert.js&#45;&gt;client/src/data&#45;access/local&#45;storage/state.js</title>
<path fill="none" stroke="#000000" stroke-width="2" stroke-opacity="0.200000" d="M92.19,-189.45C94.8,-191.28 97.16,-193.45 98.99,-196 114.69,-217.85 89.56,-235.51 106.99,-256 109.91,-259.43 113.7,-261.98 117.82,-263.86"/>
<polygon fill="#000000" fill-opacity="0.200000" stroke="#000000" stroke-width="2" stroke-opacity="0.200000" points="117.24,-265.88 123.59,-266.04 118.72,-261.95 117.24,-265.88"/>
</g>
<!-- client/src/data&#45;access/local&#45;storage/set&#45;item.js -->
<g id="node9" class="node">
<title>client/src/data&#45;access/local&#45;storage/set&#45;item.js</title>
<g id="a_node9"><a xlink:href="client/src/data-access/local-storage/set-item.js" xlink:title="set&#45;item.js">
<path fill="#ffffcc" stroke="black" d="M265.54,-225.3C265.54,-225.3 220.95,-225.3 220.95,-225.3 217.85,-225.3 214.75,-222.2 214.75,-219.1 214.75,-219.1 214.75,-212.9 214.75,-212.9 214.75,-209.8 217.85,-206.7 220.95,-206.7 220.95,-206.7 265.54,-206.7 265.54,-206.7 268.64,-206.7 271.74,-209.8 271.74,-212.9 271.74,-212.9 271.74,-219.1 271.74,-219.1 271.74,-222.2 268.64,-225.3 265.54,-225.3"/>
<text text-anchor="middle" x="243.25" y="-213.3" font-family="Helvetica,sans-Serif" font-size="9.00">set&#45;item.js</text>
</a>
</g>
</g>
<!-- client/src/data&#45;access/insert.js&#45;&gt;client/src/data&#45;access/local&#45;storage/set&#45;item.js -->
<g id="edge7" class="edge">
<title>client/src/data&#45;access/insert.js&#45;&gt;client/src/data&#45;access/local&#45;storage/set&#45;item.js</title>
<path fill="none" stroke="#000000" stroke-width="2" stroke-opacity="0.200000" d="M89.57,-189.31C92.93,-191.23 96.2,-193.46 98.99,-196 104.01,-200.57 101.16,-205.54 106.99,-209 137.77,-227.26 179.75,-226.28 208.74,-222.49"/>
<polygon fill="#000000" fill-opacity="0.200000" stroke="#000000" stroke-width="2" stroke-opacity="0.200000" points="209.07,-224.56 214.72,-221.64 208.48,-220.4 209.07,-224.56"/>
</g>
<!-- client/src/data&#45;access/utils/is&#45;json&#45;data.js -->
<g id="node10" class="node">
<title>client/src/data&#45;access/utils/is&#45;json&#45;data.js</title>
<g id="a_node10"><a xlink:href="client/src/data-access/utils/is-json-data.js" xlink:title="is&#45;json&#45;data.js">
<path fill="#ffffcc" stroke="black" d="M180.3,-141.3C180.3,-141.3 121.69,-141.3 121.69,-141.3 118.59,-141.3 115.49,-138.2 115.49,-135.1 115.49,-135.1 115.49,-128.9 115.49,-128.9 115.49,-125.8 118.59,-122.7 121.69,-122.7 121.69,-122.7 180.3,-122.7 180.3,-122.7 183.4,-122.7 186.5,-125.8 186.5,-128.9 186.5,-128.9 186.5,-135.1 186.5,-135.1 186.5,-138.2 183.4,-141.3 180.3,-141.3"/>
<text text-anchor="middle" x="151" y="-129.3" font-family="Helvetica,sans-Serif" font-size="9.00">is&#45;json&#45;data.js</text>
</a>
</g>
</g>
<!-- client/src/data&#45;access/insert.js&#45;&gt;client/src/data&#45;access/utils/is&#45;json&#45;data.js -->
<g id="edge9" class="edge">
<title>client/src/data&#45;access/insert.js&#45;&gt;client/src/data&#45;access/utils/is&#45;json&#45;data.js</title>
<path fill="none" stroke="#000000" stroke-width="2" stroke-opacity="0.200000" d="M90.59,-170.65C93.66,-168.77 96.58,-166.56 98.99,-164 105.28,-157.33 100.18,-151.13 106.99,-145 107.91,-144.18 108.87,-143.41 109.87,-142.69"/>
<polygon fill="#000000" fill-opacity="0.200000" stroke="#000000" stroke-width="2" stroke-opacity="0.200000" points="111.14,-144.37 115.19,-139.47 108.97,-140.78 111.14,-144.37"/>
</g>
<!-- client/src/data&#45;access/local&#45;storage/set&#45;item.js&#45;&gt;client/src/data&#45;access/local&#45;storage/store.js -->
<g id="edge19" class="edge">
<title>client/src/data&#45;access/local&#45;storage/set&#45;item.js&#45;&gt;client/src/data&#45;access/local&#45;storage/store.js</title>
<path fill="none" stroke="#000000" stroke-width="2" stroke-opacity="0.200000" d="M271.81,-222.76C278.56,-225.09 285.55,-228.13 291.5,-232 300.65,-237.96 308.97,-246.93 315.1,-254.55"/>
<polygon fill="#000000" fill-opacity="0.200000" stroke="#000000" stroke-width="2" stroke-opacity="0.200000" points="313.64,-256.09 318.97,-259.55 316.96,-253.52 313.64,-256.09"/>
</g>
<!-- client/src/data&#45;access/utils/is&#45;plain&#45;object.js -->
<g id="node13" class="node">
<title>client/src/data&#45;access/utils/is&#45;plain&#45;object.js</title>
<g id="a_node13"><a xlink:href="client/src/data-access/utils/is-plain-object.js" xlink:title="is&#45;plain&#45;object.js">
<path fill="#ffffcc" stroke="black" d="M277.55,-141.3C277.55,-141.3 208.95,-141.3 208.95,-141.3 205.85,-141.3 202.75,-138.2 202.75,-135.1 202.75,-135.1 202.75,-128.9 202.75,-128.9 202.75,-125.8 205.85,-122.7 208.95,-122.7 208.95,-122.7 277.55,-122.7 277.55,-122.7 280.65,-122.7 283.75,-125.8 283.75,-128.9 283.75,-128.9 283.75,-135.1 283.75,-135.1 283.75,-138.2 280.65,-141.3 277.55,-141.3"/>
<text text-anchor="middle" x="243.25" y="-129.3" font-family="Helvetica,sans-Serif" font-size="9.00">is&#45;plain&#45;object.js</text>
</a>
</g>
</g>
<!-- client/src/data&#45;access/utils/is&#45;json&#45;data.js&#45;&gt;client/src/data&#45;access/utils/is&#45;plain&#45;object.js -->
<g id="edge29" class="edge">
<title>client/src/data&#45;access/utils/is&#45;json&#45;data.js&#45;&gt;client/src/data&#45;access/utils/is&#45;plain&#45;object.js</title>
<path fill="none" stroke="#000000" stroke-width="2" stroke-opacity="0.200000" d="M186.63,-132C189.93,-132 193.3,-132 196.67,-132"/>
<polygon fill="#000000" fill-opacity="0.200000" stroke="#000000" stroke-width="2" stroke-opacity="0.200000" points="196.74,-134.1 202.74,-132 196.74,-129.9 196.74,-134.1"/>
</g>
<!-- client/src/data&#45;access/load.js -->
<g id="node11" class="node">
<title>client/src/data&#45;access/load.js</title>
<g id="a_node11"><a xlink:href="client/src/data-access/load.js" xlink:title="load.js">
<path fill="#ffffcc" stroke="black" d="M86.3,-127.3C86.3,-127.3 44.7,-127.3 44.7,-127.3 41.6,-127.3 38.5,-124.2 38.5,-121.1 38.5,-121.1 38.5,-114.9 38.5,-114.9 38.5,-111.8 41.6,-108.7 44.7,-108.7 44.7,-108.7 86.3,-108.7 86.3,-108.7 89.4,-108.7 92.5,-111.8 92.5,-114.9 92.5,-114.9 92.5,-121.1 92.5,-121.1 92.5,-124.2 89.4,-127.3 86.3,-127.3"/>
<text text-anchor="middle" x="65.5" y="-115.3" font-family="Helvetica,sans-Serif" font-size="9.00">load.js</text>
</a>
</g>
</g>
<!-- client/src/data&#45;access/load.js&#45;&gt;/lib/validate.js -->
<g id="edge15" class="edge">
<title>client/src/data&#45;access/load.js&#45;&gt;/lib/validate.js</title>
<path fill="none" stroke="#000000" stroke-width="2" stroke-opacity="0.200000" d="M75.75,-108.58C90.42,-93.64 119.1,-64.45 136.2,-47.04"/>
<polygon fill="#000000" fill-opacity="0.200000" stroke="#000000" stroke-width="2" stroke-opacity="0.200000" points="137.99,-48.22 140.7,-42.46 135,-45.27 137.99,-48.22"/>
</g>
<!-- client/src/data&#45;access/load.js&#45;&gt;client/src/data&#45;access/local&#45;storage/state.js -->
<g id="edge13" class="edge">
<title>client/src/data&#45;access/load.js&#45;&gt;client/src/data&#45;access/local&#45;storage/state.js</title>
<path fill="none" stroke="#000000" stroke-width="2" stroke-opacity="0.200000" d="M92.36,-127.33C94.94,-129.18 97.25,-131.39 98.99,-134 114.1,-156.59 90.09,-234.73 106.99,-256 109.86,-259.61 113.7,-262.25 117.9,-264.17"/>
<polygon fill="#000000" fill-opacity="0.200000" stroke="#000000" stroke-width="2" stroke-opacity="0.200000" points="117.46,-266.24 123.81,-266.36 118.92,-262.3 117.46,-266.24"/>
</g>
<!-- client/src/data&#45;access/load.js&#45;&gt;client/src/data&#45;access/local&#45;storage/get&#45;item.js -->
<g id="edge10" class="edge">
<title>client/src/data&#45;access/load.js&#45;&gt;client/src/data&#45;access/local&#45;storage/get&#45;item.js</title>
<path fill="none" stroke="#000000" stroke-width="2" stroke-opacity="0.200000" d="M92.24,-127.42C94.84,-129.25 97.18,-131.43 98.99,-134 116.79,-159.23 90.06,-177.19 106.99,-203 131.79,-240.8 159.16,-226.45 195,-254 198.99,-257.06 199.19,-258.72 203,-262 209.45,-267.55 216.87,-273.21 223.52,-278.04"/>
<polygon fill="#000000" fill-opacity="0.200000" stroke="#000000" stroke-width="2" stroke-opacity="0.200000" points="222.32,-279.76 228.42,-281.55 224.77,-276.35 222.32,-279.76"/>
</g>
<!-- client/src/data&#45;access/load.js&#45;&gt;client/src/data&#45;access/local&#45;storage/set&#45;item.js -->
<g id="edge12" class="edge">
<title>client/src/data&#45;access/load.js&#45;&gt;client/src/data&#45;access/local&#45;storage/set&#45;item.js</title>
<path fill="none" stroke="#000000" stroke-width="2" stroke-opacity="0.200000" d="M91.68,-127.38C94.44,-129.23 96.98,-131.42 98.99,-134 109.35,-147.26 94.9,-159.3 106.99,-171 135.57,-198.64 157.87,-172.8 195,-187 205.42,-190.98 216.1,-197.31 224.65,-203.03"/>
<polygon fill="#000000" fill-opacity="0.200000" stroke="#000000" stroke-width="2" stroke-opacity="0.200000" points="223.56,-204.83 229.69,-206.5 225.93,-201.37 223.56,-204.83"/>
</g>
<!-- client/src/data&#45;access/local&#45;storage/remove&#45;item.js -->
<g id="node12" class="node">
<title>client/src/data&#45;access/local&#45;storage/remove&#45;item.js</title>
<g id="a_node12"><a xlink:href="client/src/data-access/local-storage/remove-item.js" xlink:title="remove&#45;item.js">
<path fill="#ffffcc" stroke="black" d="M274.54,-256.3C274.54,-256.3 211.96,-256.3 211.96,-256.3 208.86,-256.3 205.76,-253.2 205.76,-250.1 205.76,-250.1 205.76,-243.9 205.76,-243.9 205.76,-240.8 208.86,-237.7 211.96,-237.7 211.96,-237.7 274.54,-237.7 274.54,-237.7 277.64,-237.7 280.74,-240.8 280.74,-243.9 280.74,-243.9 280.74,-250.1 280.74,-250.1 280.74,-253.2 277.64,-256.3 274.54,-256.3"/>
<text text-anchor="middle" x="243.25" y="-244.3" font-family="Helvetica,sans-Serif" font-size="9.00">remove&#45;item.js</text>
</a>
</g>
</g>
<!-- client/src/data&#45;access/load.js&#45;&gt;client/src/data&#45;access/local&#45;storage/remove&#45;item.js -->
<g id="edge11" class="edge">
<title>client/src/data&#45;access/load.js&#45;&gt;client/src/data&#45;access/local&#45;storage/remove&#45;item.js</title>
<path fill="none" stroke="#000000" stroke-width="2" stroke-opacity="0.200000" d="M92.12,-127.5C94.74,-129.32 97.12,-131.47 98.99,-134 112.13,-151.73 92.91,-166.01 106.99,-183 133.55,-215.05 163.93,-187.31 195,-215 200.93,-220.29 197.17,-225.6 203,-231 204.31,-232.22 205.74,-233.35 207.23,-234.4"/>
<polygon fill="#000000" fill-opacity="0.200000" stroke="#000000" stroke-width="2" stroke-opacity="0.200000" points="206.34,-236.32 212.55,-237.67 208.53,-232.74 206.34,-236.32"/>
</g>
<!-- client/src/data&#45;access/load.js&#45;&gt;client/src/data&#45;access/utils/is&#45;plain&#45;object.js -->
<g id="edge14" class="edge">
<title>client/src/data&#45;access/load.js&#45;&gt;client/src/data&#45;access/utils/is&#45;plain&#45;object.js</title>
<path fill="none" stroke="#000000" stroke-width="2" stroke-opacity="0.200000" d="M92.76,-115.34C118.86,-113.27 159.94,-111.57 195,-117 200.5,-117.85 206.23,-119.23 211.73,-120.81"/>
<polygon fill="#000000" fill-opacity="0.200000" stroke="#000000" stroke-width="2" stroke-opacity="0.200000" points="211.23,-122.86 217.58,-122.6 212.45,-118.84 211.23,-122.86"/>
</g>
<!-- client/src/data&#45;access/local&#45;storage/remove&#45;item.js&#45;&gt;client/src/data&#45;access/local&#45;storage/store.js -->
<g id="edge18" class="edge">
<title>client/src/data&#45;access/local&#45;storage/remove&#45;item.js&#45;&gt;client/src/data&#45;access/local&#45;storage/store.js</title>
<path fill="none" stroke="#000000" stroke-width="2" stroke-opacity="0.200000" d="M278.71,-256.33C283.57,-257.65 288.56,-259 293.38,-260.3"/>
<polygon fill="#000000" fill-opacity="0.200000" stroke="#000000" stroke-width="2" stroke-opacity="0.200000" points="293.03,-262.38 299.37,-261.93 294.13,-258.33 293.03,-262.38"/>
</g>
<!-- client/src/data&#45;access/local&#45;storage/clear.js -->
<g id="node14" class="node">
<title>client/src/data&#45;access/local&#45;storage/clear.js</title>
<g id="a_node14"><a xlink:href="client/src/data-access/local-storage/clear.js" xlink:title="clear.js">
<path fill="#ffffcc" stroke="black" d="M264.05,-331.3C264.05,-331.3 222.45,-331.3 222.45,-331.3 219.35,-331.3 216.25,-328.2 216.25,-325.1 216.25,-325.1 216.25,-318.9 216.25,-318.9 216.25,-315.8 219.35,-312.7 222.45,-312.7 222.45,-312.7 264.05,-312.7 264.05,-312.7 267.15,-312.7 270.25,-315.8 270.25,-318.9 270.25,-318.9 270.25,-325.1 270.25,-325.1 270.25,-328.2 267.15,-331.3 264.05,-331.3"/>
<text text-anchor="middle" x="243.25" y="-319.3" font-family="Helvetica,sans-Serif" font-size="9.00">clear.js</text>
</a>
</g>
</g>
<!-- client/src/data&#45;access/local&#45;storage/clear.js&#45;&gt;client/src/data&#45;access/local&#45;storage/store.js -->
<g id="edge16" class="edge">
<title>client/src/data&#45;access/local&#45;storage/clear.js&#45;&gt;client/src/data&#45;access/local&#45;storage/store.js</title>
<path fill="none" stroke="#000000" stroke-width="2" stroke-opacity="0.200000" d="M270.33,-315.74C277.53,-313.35 285.11,-310.16 291.5,-306 300.65,-300.04 308.97,-291.07 315.1,-283.45"/>
<polygon fill="#000000" fill-opacity="0.200000" stroke="#000000" stroke-width="2" stroke-opacity="0.200000" points="316.96,-284.48 318.97,-278.45 313.64,-281.91 316.96,-284.48"/>
</g>
<!-- client/src/data&#45;access/remove&#45;all.js -->
<g id="node16" class="node">
<title>client/src/data&#45;access/remove&#45;all.js</title>
<g id="a_node16"><a xlink:href="client/src/data-access/remove-all.js" xlink:title="remove&#45;all.js">
<path fill="#ffffcc" stroke="black" d="M92.79,-375.3C92.79,-375.3 38.2,-375.3 38.2,-375.3 35.1,-375.3 32,-372.2 32,-369.1 32,-369.1 32,-362.9 32,-362.9 32,-359.8 35.1,-356.7 38.2,-356.7 38.2,-356.7 92.79,-356.7 92.79,-356.7 95.89,-356.7 98.99,-359.8 98.99,-362.9 98.99,-362.9 98.99,-369.1 98.99,-369.1 98.99,-372.2 95.89,-375.3 92.79,-375.3"/>
<text text-anchor="middle" x="65.5" y="-363.3" font-family="Helvetica,sans-Serif" font-size="9.00">remove&#45;all.js</text>
</a>
</g>
</g>
<!-- client/src/data&#45;access/remove&#45;all.js&#45;&gt;client/src/data&#45;access/local&#45;storage/state.js -->
<g id="edge23" class="edge">
<title>client/src/data&#45;access/remove&#45;all.js&#45;&gt;client/src/data&#45;access/local&#45;storage/state.js</title>
<path fill="none" stroke="#000000" stroke-width="2" stroke-opacity="0.200000" d="M92.23,-356.58C94.83,-354.74 97.18,-352.57 98.99,-350 116.56,-325.15 87.46,-305.33 106.99,-282 109.95,-278.46 113.84,-275.87 118.07,-273.97"/>
<polygon fill="#000000" fill-opacity="0.200000" stroke="#000000" stroke-width="2" stroke-opacity="0.200000" points="119.09,-275.83 123.99,-271.78 117.63,-271.89 119.09,-275.83"/>
</g>
<!-- client/src/data&#45;access/remove&#45;all.js&#45;&gt;client/src/data&#45;access/local&#45;storage/clear.js -->
<g id="edge22" class="edge">
<title>client/src/data&#45;access/remove&#45;all.js&#45;&gt;client/src/data&#45;access/local&#45;storage/clear.js</title>
<path fill="none" stroke="#000000" stroke-width="2" stroke-opacity="0.200000" d="M99.14,-357.83C130.78,-349.91 178.49,-337.96 210,-330.07"/>
<polygon fill="#000000" fill-opacity="0.200000" stroke="#000000" stroke-width="2" stroke-opacity="0.200000" points="210.77,-332.05 216.08,-328.55 209.75,-327.97 210.77,-332.05"/>
</g>
<!-- client/src/data&#45;access/remove.js -->
<g id="node17" class="node">
<title>client/src/data&#45;access/remove.js</title>
<g id="a_node17"><a xlink:href="client/src/data-access/remove.js" xlink:title="remove.js">
<path fill="#ffffcc" stroke="black" d="M86.8,-220.3C86.8,-220.3 44.2,-220.3 44.2,-220.3 41.1,-220.3 38,-217.2 38,-214.1 38,-214.1 38,-207.9 38,-207.9 38,-204.8 41.1,-201.7 44.2,-201.7 44.2,-201.7 86.8,-201.7 86.8,-201.7 89.9,-201.7 93,-204.8 93,-207.9 93,-207.9 93,-214.1 93,-214.1 93,-217.2 89.9,-220.3 86.8,-220.3"/>
<text text-anchor="middle" x="65.5" y="-208.3" font-family="Helvetica,sans-Serif" font-size="9.00">remove.js</text>
</a>
</g>
</g>
<!-- client/src/data&#45;access/remove.js&#45;&gt;client/src/data&#45;access/local&#45;storage/state.js -->
<g id="edge25" class="edge">
<title>client/src/data&#45;access/remove.js&#45;&gt;client/src/data&#45;access/local&#45;storage/state.js</title>
<path fill="none" stroke="#000000" stroke-width="2" stroke-opacity="0.200000" d="M91.54,-220.49C94.33,-222.32 96.91,-224.48 98.99,-227 107.52,-237.3 97.65,-246.43 106.99,-256 110.06,-259.15 113.87,-261.54 117.93,-263.35"/>
<polygon fill="#000000" fill-opacity="0.200000" stroke="#000000" stroke-width="2" stroke-opacity="0.200000" points="117.24,-265.34 123.59,-265.49 118.72,-261.41 117.24,-265.34"/>
</g>
<!-- client/src/data&#45;access/remove.js&#45;&gt;client/src/data&#45;access/local&#45;storage/remove&#45;item.js -->
<g id="edge24" class="edge">
<title>client/src/data&#45;access/remove.js&#45;&gt;client/src/data&#45;access/local&#45;storage/remove&#45;item.js</title>
<path fill="none" stroke="#000000" stroke-width="2" stroke-opacity="0.200000" d="M93.05,-216.99C97.7,-218.01 102.48,-219.05 106.99,-220 138.03,-226.55 173.17,-233.55 199.85,-238.78"/>
<polygon fill="#000000" fill-opacity="0.200000" stroke="#000000" stroke-width="2" stroke-opacity="0.200000" points="199.46,-240.84 205.75,-239.94 200.27,-236.72 199.46,-240.84"/>
</g>
<!-- client/src/data&#45;access/save.js -->
<g id="node18" class="node">
<title>client/src/data&#45;access/save.js</title>
<g id="a_node18"><a xlink:href="client/src/data-access/save.js" xlink:title="save.js">
<path fill="#ffffcc" stroke="black" d="M86.3,-158.3C86.3,-158.3 44.7,-158.3 44.7,-158.3 41.6,-158.3 38.5,-155.2 38.5,-152.1 38.5,-152.1 38.5,-145.9 38.5,-145.9 38.5,-142.8 41.6,-139.7 44.7,-139.7 44.7,-139.7 86.3,-139.7 86.3,-139.7 89.4,-139.7 92.5,-142.8 92.5,-145.9 92.5,-145.9 92.5,-152.1 92.5,-152.1 92.5,-155.2 89.4,-158.3 86.3,-158.3"/>
<text text-anchor="middle" x="65.5" y="-146.3" font-family="Helvetica,sans-Serif" font-size="9.00">save.js</text>
</a>
</g>
</g>
<!-- client/src/data&#45;access/save.js&#45;&gt;client/src/data&#45;access/local&#45;storage/state.js -->
<g id="edge27" class="edge">
<title>client/src/data&#45;access/save.js&#45;&gt;client/src/data&#45;access/local&#45;storage/state.js</title>
<path fill="none" stroke="#000000" stroke-width="2" stroke-opacity="0.200000" d="M92.31,-158.37C94.89,-160.21 97.22,-162.41 98.99,-165 110.46,-181.75 94.19,-240.25 106.99,-256 109.9,-259.58 113.76,-262.2 117.98,-264.11"/>
<polygon fill="#000000" fill-opacity="0.200000" stroke="#000000" stroke-width="2" stroke-opacity="0.200000" points="117.53,-266.18 123.89,-266.3 118.99,-262.25 117.53,-266.18"/>
</g>
<!-- client/src/data&#45;access/save.js&#45;&gt;client/src/data&#45;access/local&#45;storage/set&#45;item.js -->
<g id="edge26" class="edge">
<title>client/src/data&#45;access/save.js&#45;&gt;client/src/data&#45;access/local&#45;storage/set&#45;item.js</title>
<path fill="none" stroke="#000000" stroke-width="2" stroke-opacity="0.200000" d="M90.43,-158.49C93.54,-160.36 96.5,-162.52 98.99,-165 104.63,-170.6 100.81,-176 106.99,-181 122.44,-193.49 173.49,-204.33 208.27,-210.51"/>
<polygon fill="#000000" fill-opacity="0.200000" stroke="#000000" stroke-width="2" stroke-opacity="0.200000" points="208.28,-212.65 214.56,-211.61 209.01,-208.51 208.28,-212.65"/>
</g>
<!-- client/src/data&#45;access/save.js&#45;&gt;client/src/data&#45;access/utils/is&#45;json&#45;data.js -->
<g id="edge28" class="edge">
<title>client/src/data&#45;access/save.js&#45;&gt;client/src/data&#45;access/utils/is&#45;json&#45;data.js</title>
<path fill="none" stroke="#000000" stroke-width="2" stroke-opacity="0.200000" d="M92.92,-143.62C98.18,-142.55 103.82,-141.4 109.43,-140.26"/>
<polygon fill="#000000" fill-opacity="0.200000" stroke="#000000" stroke-width="2" stroke-opacity="0.200000" points="110.03,-142.28 115.49,-139.02 109.19,-138.16 110.03,-142.28"/>
</g>
</g>
</svg>
