<?xml version="1.0" standalone="no"?>
<!DOCTYPE svg PUBLIC "-//W3C//DTD SVG 20010904//EN"
 "http://www.w3.org/TR/2001/REC-SVG-20010904/DTD/svg10.dtd">
<svg version="1.0" xmlns="http://www.w3.org/2000/svg"
 width="336.000000pt" height="336.000000pt" viewBox="0 0 336.000000 336.000000"
 preserveAspectRatio="xMidYMid meet">
<metadata>
Created by potrace 1.14, written by Peter Selinger 2001-2017
</metadata>
<g transform="translate(0.000000,336.000000) scale(0.100000,-0.100000)"
fill="#000000" stroke="none">
<path d="M1835 3233 c-55 -8 -280 -65 -290 -73 -5 -4 -21 -11 -35 -15 -26 -8
-191 -86 -200 -95 -3 -3 -36 -26 -75 -51 -285 -187 -501 -456 -645 -804 -50
-122 -97 -311 -119 -480 -13 -93 -8 -250 10 -350 15 -88 69 -234 106 -289 51
-75 121 -161 148 -180 14 -11 36 -28 48 -39 12 -10 34 -25 49 -33 16 -8 28
-16 28 -19 0 -2 -15 -11 -33 -20 -96 -45 -130 -102 -126 -213 3 -131 38 -187
121 -198 41 -6 57 -2 130 33 220 106 407 123 587 56 61 -23 107 -45 406 -195
145 -73 264 -103 378 -95 164 12 304 70 463 190 103 78 129 113 131 184 1 51
-24 154 -39 161 -5 2 -8 10 -8 17 0 7 -20 23 -45 35 -52 25 -84 23 -162 -12
-99 -44 -266 -41 -388 7 -33 13 -71 26 -83 30 -13 4 -44 16 -69 27 l-45 20 80
46 c127 75 198 130 312 242 131 130 217 237 265 331 10 19 21 36 25 39 11 8
100 192 100 207 0 7 4 13 9 13 5 0 12 17 16 37 4 21 13 50 21 65 23 44 73 265
83 368 32 334 -59 621 -260 819 -45 44 -145 117 -189 138 -166 79 -248 96
-480 98 -107 2 -208 1 -225 -2z"/>
</g>
</svg>
